<?xml version="1.0" encoding="utf-8"?>
<!-- Generator: Adobe Illustrator 27.5.0, SVG Export Plug-In . SVG Version: 6.00 Build 0)  -->
<svg version="1.1" xmlns="http://www.w3.org/2000/svg" xmlns:xlink="http://www.w3.org/1999/xlink" x="0px" y="0px"
	 viewBox="0 0 500 500" style="enable-background:new 0 0 500 500;" xml:space="preserve">
<g id="BACKGROUND">
	<rect style="fill:#FFFFFF;" width="500" height="500"/>
</g>
<g id="OBJECTS">
	<g>
		<path style="fill:#191F28;" d="M290.539,106.958c-14.426-18.6-37.687-28.864-61.173-26.603c-7.073,0.681-14.018,2.43-20.553,5.221
			c-1.759,0.752-0.912,3.632,0.862,2.874c21.37-9.13,46.517-6.451,65.256,7.385c4.896,3.615,9.322,7.883,13.053,12.694
			C289.155,110.042,291.721,108.482,290.539,106.958z"/>
		<path style="fill:#191F28;" d="M261.851,189.962c-0.581-0.541-1.583-0.538-2.12,0.074c-0.659,0.751-1.355,1.468-2.093,2.143
			c-0.791,0.724-1.318,1.15-2.209,1.789c-0.812,0.582-1.656,1.118-2.528,1.607c-0.436,0.244-0.878,0.476-1.327,0.696
			c-0.512,0.251-0.727,0.345-1.239,0.557c-0.42,0.174-0.758,0.483-0.935,0.865c-0.443,0.32-0.689,0.864-0.433,1.543
			c2.219,5.887,0.992,12.403-2.327,17.629c-3.237,5.096-8.303,8.828-13.636,11.5c-5.742,2.878-11.951,4.15-18.218,2.321
			c-5.746-1.677-10.742-5.469-14.527-10.035c-4.61-5.561-7.621-12.261-10.177-18.957c-0.229-0.6-0.703-0.899-1.207-0.971
			c-0.319-0.075-0.67-0.056-1.029,0.116c-9.314,4.442-22.255,9.945-31.003,1.314c-3.772-3.722-5.941-9.082-7.295-14.114
			c-1.478-5.491-1.75-11.345-0.028-16.813c1.488-4.723,4.468-8.824,8.654-11.489c2.104-1.34,4.321-2.488,6.191-4.164
			c1.951-1.748,3.122-4.072,3.721-6.598c0.596-2.514,0.725-5.121,1.112-7.671c0.386-2.543,0.903-5.066,1.542-7.557
			c1.263-4.926,3.014-9.711,5.215-14.296c4.963-10.34,12.16-19.626,21.087-26.847c0.635-0.513,0.947-1.306,0.492-2.064
			c-0.375-0.625-1.435-1.001-2.064-0.492c-8.436,6.824-15.436,15.269-20.563,24.837c-2.553,4.764-4.623,9.792-6.19,14.964
			c-1.598,5.274-2.356,10.59-3.117,16.027c-0.387,2.768-1.068,5.411-3.154,7.397c-1.887,1.796-4.343,2.884-6.487,4.326
			c-4.465,3.003-7.568,7.521-9.246,12.595c-1.853,5.602-1.705,11.685-0.371,17.382c1.285,5.49,3.568,11.138,7.253,15.468
			c4.145,4.871,10.274,6.936,16.564,6.609c6.267-0.326,12.07-2.855,17.675-5.507c4.803,12.115,11.831,24.372,24.774,28.97
			c6.71,2.384,13.576,1.6,20.002-1.268c6.052-2.701,11.763-6.67,15.669-12.095c4.209-5.846,6.1-13.515,3.865-20.476
			c3.724-1.692,7.073-4.112,9.781-7.197C262.459,191.473,262.456,190.527,261.851,189.962z"/>
		<path style="fill:#191F28;" d="M337.981,120.597c-1.939-7.504-8.849-10.911-15.856-12.507c-8.57-1.951-17.548-2.535-26.307-1.932
			c-2.219,0.153-4.431,0.391-6.634,0.699c-1.896,0.265-1.809,3.265,0.105,2.998c8.292-1.158,16.733-1.237,25.033-0.107
			c6.267,0.854,14.627,1.916,18.757,7.36c2.26,2.979,2.62,6.8,2.688,10.417c0.079,4.257-0.004,8.521-0.015,12.778
			c-0.023,8.721-0.046,17.441-0.069,26.162c-0.011,3.989,0.279,8.114-0.152,12.084c-0.183,1.685-0.594,3.465-1.742,4.771
			c-1.067,1.214-2.636,1.873-4.213,2.106c-3.896,0.576-7.877-1.204-11.49-2.416l-12.387-4.157
			c-4.129-1.386-8.258-2.771-12.387-4.157c-1.943-0.652-3.926-1.235-5.836-1.976c-1.561-0.605-2.924-1.462-3.634-3.036
			c-1.367-3.031-0.693-6.987-0.103-10.124c0.663-3.521,1.79-6.936,3.364-10.154c3.134-6.409,7.924-11.338,13.406-15.789
			c5.039-4.092,10.382-8.007,14.164-13.369c0.917-1.301,1.721-2.663,2.401-4.103c0.82-1.739-1.833-3.143-2.66-1.39
			c-0.402,0.851-0.853,1.665-1.34,2.451c-6.171-2.769-13.154-3.316-19.683-1.498c-1.865,0.519-0.997,3.392,0.862,2.874
			c5.638-1.57,11.68-1.148,17.052,1.14c-3.055,3.894-7.036,7.052-10.898,10.153c-5.823,4.676-11.223,9.533-14.913,16.134
			c-1.902,3.401-3.337,7.091-4.25,10.879c-0.844,3.503-1.485,7.399-0.955,10.998c0.248,1.685,0.77,3.338,1.831,4.695
			c1.215,1.554,2.889,2.417,4.711,3.076c3.724,1.348,7.505,2.555,11.267,3.8c-0.503,12.744-6.212,24.987-15.587,33.63
			c-1.42,1.309,0.781,3.349,2.194,2.046c9.691-8.934,15.56-21.572,16.342-34.693c3.902,1.309,7.804,2.619,11.705,3.928
			c4.238,1.422,8.603,3.352,13.051,3.972c3.594,0.501,7.654-0.123,10.179-2.974c2.488-2.809,2.659-6.724,2.675-10.285
			c0.042-9.385,0.05-18.77,0.075-28.155c0.013-4.734,0.025-9.468,0.038-14.202C338.78,128.695,338.999,124.536,337.981,120.597z"/>
		<path style="fill:#191F28;" d="M223.805,44.164c-8.451-10.993-19.958-19.2-33.02-23.815c-6.489-2.293-13.297-3.625-20.169-3.977
			c-5.499-0.282-14.077-0.119-14.818,7.114c-0.373,3.643,1.538,7.042,2.614,10.408c1.203,3.765,1.911,7.661,2.313,11.588
			c0.801,7.818,0.469,15.684,0.622,23.527c0.267,13.687,2.526,28.99,13.528,38.453c1.199,1.031,2.49,1.954,3.837,2.783
			c1.643,1.011,3.03-1.65,1.39-2.66c-11.401-7.015-14.882-21.168-15.576-33.653c-0.808-14.551,1.122-29.536-4.151-43.481
			c-1.031-2.728-2.935-6.8-0.361-9.26c1.835-1.754,4.803-1.899,7.196-1.91c6.55-0.03,13.103,0.992,19.379,2.848
			c12.439,3.679,23.741,10.872,32.256,20.664c9.286,10.68,15.148,24.322,16.527,38.4c0.188,1.915,3.187,1.821,2.998-0.105
			C237.061,67.733,231.989,54.81,223.805,44.164z"/>
		<path style="fill:#191F28;" d="M211.413,80.665c-4.309-6.247-10.634-10.847-17.895-13.044c-1.848-0.559-2.502,2.37-0.659,2.927
			c6.457,1.954,12.169,6.138,15.998,11.688C209.951,83.822,212.511,82.256,211.413,80.665z"/>
		<path style="fill:#191F28;" d="M206.598,81.183c-5.601-1.228-11.487-0.874-16.889,1.059c-1.815,0.65-0.958,3.526,0.862,2.874
			c4.94-1.768,10.24-2.13,15.367-1.006C207.824,84.523,208.49,81.598,206.598,81.183z"/>
		<path style="fill:#191F28;" d="M212.381,80.948c-4.425-16.752-12.475-33.804-28.307-42.476c-4.097-2.244-8.583-3.784-13.219-4.391
			c-1.01-0.132-2.219,0.753-1.767,1.895c6.061,15.296-4.845,31.829,1.46,47.182c0.728,1.774,3.607,0.924,2.874-0.862
			c-3.114-7.583-1.814-15.847-0.645-23.699c1.038-6.973,1.941-14.298-0.031-21.15c15.373,3.188,26.287,16.332,32.126,30.358
			c1.892,4.546,3.378,9.247,4.635,14.004C210.002,83.681,212.873,82.812,212.381,80.948z"/>
		<path style="fill:#191F28;" d="M184.176,101.919c-3.146-3.251-5.702-7.02-7.622-11.125c-0.343-0.734-1.43-0.883-2.064-0.492
			c-0.756,0.466-0.837,1.327-0.492,2.064c2.03,4.342,4.8,8.303,8.132,11.747c0.564,0.583,1.588,0.497,2.12-0.074
			C184.827,103.42,184.741,102.504,184.176,101.919z"/>
		<path style="opacity:0.96;fill:#191F28;" d="M215.363,179.577c-2.193-2.356-4.894-4.245-7.721-5.763
			c-2.89-1.552-6.074-2.941-9.289-3.631c-5.745-1.233-14.18-0.087-15.195,6.989c-0.575,4.008,0.883,8.055,2.38,11.709
			c1.485,3.624,3.37,7.053,6.193,9.812c0.067,0.066,0.137,0.116,0.207,0.166c0.233,0.429,0.666,0.745,1.3,0.732
			c3.973-0.081,7.933-0.423,11.858-1.049c3.429-0.547,7.134-1.056,10.185-2.819c2.683-1.551,4.794-4.387,4.594-7.601
			C219.672,184.861,217.518,181.891,215.363,179.577z M214.078,192.943c-2.867,1.825-6.735,2.256-10.029,2.745
			c-3.385,0.503-6.795,0.782-10.215,0.878c-0.021-0.022-0.035-0.046-0.057-0.068c-2.064-2.018-3.571-4.48-4.767-7.094
			c-1.232-2.691-2.411-5.641-2.837-8.582c-0.407-2.809,0.001-5.591,2.704-7.013c2.354-1.238,5.356-1.293,7.922-0.87
			c2.809,0.464,5.513,1.582,8.062,2.822c2.323,1.13,4.549,2.473,6.517,4.154c1.96,1.675,3.786,3.714,4.871,6.076
			C217.512,188.74,216.588,191.346,214.078,192.943z"/>
		<path style="fill:#191F28;" d="M281.609,212.817c-5.913-2.377-12.644-1.871-18.089,1.484c-2.925,1.802-4.897,4.568-7.564,6.657
			c-2.692,2.108-6.233,2.485-8.923,0.121c-1.448-1.272-3.5,0.917-2.046,2.194c2.195,1.929,5.103,2.82,7.999,2.325
			c2.79-0.477,4.991-2.284,6.944-4.224c2.156-2.142,4.187-4.215,6.995-5.509c2.77-1.277,5.941-1.826,8.976-1.465
			c5.161,0.613,12.482,4.274,12.719,10.239c0.248,6.257-5.705,10.203-10.567,12.74c-4.818,2.514-10.209,4.928-13.484,9.345
			c-0.275-2.502-0.066-5.082,1.729-6.996c1.32-1.408-0.872-3.456-2.194-2.046c-4.109,4.383-2.292,10.344-1.366,15.553
			c0.547,3.078,0.689,6.288,0.389,9.401c-0.237,2.462-0.795,5.066-2.291,7.094c-2.75,3.729-8.267,4.399-12.292,2.543
			c-4.591-2.118-7.424-6.589-8.872-11.278c-1.622-5.248-2.168-10.948-5.271-15.6c0.057-0.401-0.081-0.822-0.528-1.159
			c-19.07-14.359-41.115-24.219-63.455-32.414l-2.782-1.011c-0.941-0.339-1.882-0.681-2.823-1.015
			c-7.303-2.591-14.742-4.845-22.411-6.053c-0.288-0.045-0.544-0.01-0.771,0.073c-3.319,0.033-6.143,1.71-9.05,3.105
			c-3.041,1.459-6.33,2.612-9.688,3.031c-5.888,0.735-12.611-0.889-16.109-6.057c-3.272-4.834-3.135-11.251-0.496-16.323
			c2.825-5.431,7.729-8.679,13.074-11.301c1.062-0.521,2.16-1.085,3.245-1.703c0.234-0.048,0.45-0.169,0.63-0.371
			c4.624-2.743,8.816-6.53,8.6-12.36c-0.072-1.932-3.07-1.828-2.998,0.105c0.131,3.538-1.861,6.072-4.517,8.051
			c0.227-4.52-1.903-9.17-3.289-13.352c-1.772-5.344-2.925-11.545,1.026-16.224c3.041-3.601,7.92-5.524,12.601-4.867
			c5.086,0.714,9.655,3.85,12.519,8.066c3.584,5.276,4.618,11.922,3.959,18.177c-0.2,1.897,2.725,2.582,2.927,0.659
			c0.659-6.263-0.082-12.695-3.073-18.315c-2.662-5.003-7.174-8.973-12.562-10.776c-5.162-1.728-10.944-0.97-15.415,2.17
			c-4.91,3.449-7.212,8.927-6.538,14.868c0.434,3.825,1.797,7.406,3.035,11.022c1.106,3.231,2.667,7.28,1.431,10.688
			c-1.699,0.923-3.428,1.724-4.913,2.48c-5.572,2.836-10.569,7.132-13.064,12.992c-2.342,5.501-2.28,12.057,0.855,17.251
			c3.255,5.395,9.472,8.113,15.602,8.296c3.903,0.116,7.819-0.792,11.437-2.208c3.507-1.372,7.029-4.077,10.899-4.107
			c0.158-0.001,0.298-0.028,0.429-0.066c8.49,1.382,16.744,3.971,24.842,6.95c-3.395,16.732-14.43,30.594-20.796,46.215
			c-7.335,18-7.612,37.798-4.834,56.796c2.91,19.898,9.096,39.072,13.763,58.584c4.351,18.19,8.048,37.822,4.136,56.433
			c-1.767,8.406-5.278,16.131-10.931,22.633c-2.693,3.098-5.705,6.315-6.763,10.4c-0.843,3.255-0.173,7.071,2.039,9.649
			c1.044,1.217,2.435,2.022,3.999,2.362c1.885,0.409,2.552-2.516,0.659-2.927c-3.123-0.678-4.29-4.287-4.006-7.149
			c0.397-4.007,3.619-7.25,6.128-10.129c5.537-6.356,9.261-13.753,11.289-21.93c4.41-17.779,1.547-36.749-2.326-54.344
			c-4.271-19.4-10.55-38.331-14.047-57.906c-3.332-18.651-4.193-38.332,1.869-56.535c5.543-16.644,17.163-30.6,21.85-47.592
			c0.318-1.155,0.59-2.32,0.833-3.491c3.257,1.236,6.491,2.519,9.705,3.798c11.752,4.676,23.324,9.879,34.317,16.153
			c5.982,3.414,11.775,7.153,17.299,11.269c0.046,0.111,0.104,0.222,0.187,0.334c3.342,4.537,3.778,10.302,5.4,15.539
			c1.579,5.099,4.601,9.894,9.353,12.563c4.25,2.387,9.77,2.54,13.975-0.05c4.985-3.07,6.076-9.183,6.134-14.599
			c0.031-2.88-0.363-5.667-0.883-8.465c0.049-0.075,0.096-0.153,0.136-0.244c2.563-5.925,8.96-8.423,14.301-11.225
			c5.36-2.812,10.914-6.971,11.709-13.449C292.304,220.007,287.126,215.035,281.609,212.817z"/>
		<path style="fill:#191F28;" d="M158.048,476.816c-2.399-1.798-4.071-4.502-4.313-7.525c-0.25-3.123,0.953-6.15,3.172-8.338
			c1.376-1.357-0.821-3.4-2.194-2.046c-2.743,2.705-4.285,6.63-3.976,10.488c0.301,3.766,2.238,7.346,5.265,9.615
			c0.648,0.486,1.525,0.564,2.12-0.074C158.63,478.393,158.701,477.305,158.048,476.816z"/>
		<path style="fill:#191F28;" d="M186.437,472.31c-0.086,3.058-3.108,4.817-5.751,5.444c-3.368,0.799-7.181,0.727-10.627,0.685
			c-3.162-0.039-5.793-1.162-6.756-4.378c-0.98-3.271,0.348-6.636,1.813-9.539c0.868-1.72-1.787-3.12-2.66-1.39
			c-1.847,3.661-3.287,7.885-1.974,11.967c1.317,4.094,4.689,6.098,8.848,6.314c2.263,0.117,4.561-0.04,6.822-0.146
			c2.162-0.101,4.372-0.262,6.445-0.93c3.659-1.18,6.726-4.117,6.838-8.13C189.489,470.272,186.49,470.386,186.437,472.31z"/>
		<path style="opacity:0.96;fill:#191F28;" d="M368.419,330.921c-8.564-8.218-19.531-14.235-31.502-15.008
			c-6.709-25.33-17.017-50.796-36.891-68.695c-5.168-4.655-10.909-8.686-17.106-11.853c-1.716-0.877-3.115,1.778-1.39,2.66
			c22.813,11.658,37.287,34.201,45.939,57.615c2.678,7.246,4.885,14.655,6.837,22.127c0.177,0.677,0.836,1.046,1.489,1.068
			c21.567,0.735,38.706,19.26,46.78,37.869c8.651,19.938,8.832,42.554,1.381,62.887c-4.224,11.527-10.72,22.174-18.884,31.328
			c-1.283,1.439,0.906,3.49,2.194,2.046c15.107-16.94,24.683-39.006,25.113-61.831C392.796,369.058,384.481,346.334,368.419,330.921
			z"/>
		<path style="fill:#191F28;" d="M332.424,451.702c-5.175,0.807-10.376,1.205-15.61,1.318c-0.168,0.004-0.336,0.007-0.504,0.011
			c-0.056-0.095-0.124-0.189-0.206-0.279c-12.123-13.315-20.526-29.886-24.157-47.521c-3.918-19.029-2.085-39.341,5.196-57.356
			c3.624-8.968,10.169-19.294,21.185-18.779c1.931,0.09,1.814-2.909-0.105-2.998c-9.893-0.463-17.395,7.298-21.54,15.49
			c-4.555,9.002-7.294,19.148-8.693,29.106c-2.761,19.644,0.185,39.721,8.467,57.739c4.118,8.958,9.544,17.263,16.009,24.697
			c-3.639,0.124-7.271,0.388-10.826,1.235c-8.005,1.906-16.381,7.948-16.276,17.012c0.05,4.319,2.259,8.501,6.048,10.65
			c1.678,0.952,3.071-1.706,1.39-2.66c-2.87-1.628-4.402-4.861-4.44-8.095c-0.041-3.561,1.885-6.845,4.421-9.223
			c6.367-5.969,15.989-5.855,24.136-6.031c5.235-0.113,10.435-0.511,15.61-1.318C334.416,454.406,334.331,451.405,332.424,451.702z"
			/>
		<path style="fill:#191F28;" d="M300.536,481.212c-2.107-1.593-3.574-3.974-3.776-6.64c-0.209-2.757,0.867-5.411,2.833-7.331
			c1.382-1.35-0.815-3.393-2.194-2.046c-2.494,2.436-3.901,5.991-3.637,9.482c0.258,3.409,1.996,6.665,4.728,8.73
			c0.646,0.488,1.526,0.563,2.12-0.074C301.119,482.786,301.186,481.703,300.536,481.212z"/>
		<path style="fill:#191F28;" d="M316.979,484.094c-3.017,0.238-6.802-0.749-8.675-3.326c-0.935-1.286-1.153-3.06-1.221-4.609
			c-0.074-1.69,0.199-3.331,1.045-4.811c0.958-1.675-1.701-3.067-2.66-1.39c-1.091,1.907-1.477,4.127-1.383,6.305
			c0.088,2.046,0.453,4.369,1.663,6.076c2.458,3.468,7.222,5.077,11.335,4.752C319.006,486.941,318.909,483.942,316.979,484.094z"/>
		<path style="fill:#191F28;" d="M378.691,469.082c-3.879-4.959-10.296-9.327-10.958-16.081c-0.188-1.915-3.187-1.821-2.998,0.105
			c0.628,6.403,5.332,10.812,9.446,15.288c3.417,3.718,7.756,10.068,4.189,15.053h-51.19c-1.935,0-1.825,2.998,0.105,2.998h51.892
			c0.616,0,1.022-0.305,1.231-0.719C384.401,480.595,382.36,473.773,378.691,469.082z"/>
		<path style="fill:#191F28;" d="M249.932,323.944c-0.877-16.365-2.834-32.662-5.805-48.779c-0.35-1.9-3.221-1.018-2.874,0.862
			c5.382,29.188,7.267,59.012,5.69,88.648c-0.79,14.835-2.462,29.619-5.002,44.257c-1.236,7.124-2.656,14.223-4.331,21.257
			c-1.615,6.786-3.541,13.536-6.439,19.898c-1.575,3.459-3.482,6.69-5.544,9.875c-1.954,3.018-3.897,6.142-4.714,9.689
			c-1.239,5.38,1.024,12.179,6.846,13.657c1.872,0.475,2.533-2.451,0.659-2.927c-5.318-1.351-5.494-8.355-3.818-12.463
			c1.217-2.984,3.108-5.634,4.831-8.337c1.814-2.846,3.401-5.823,4.761-8.912c2.682-6.09,4.571-12.497,6.136-18.955
			c1.698-7.005,3.124-14.083,4.374-21.181C249.728,381.998,251.483,352.877,249.932,323.944z"/>
		<path style="fill:#191F28;" d="M234.705,480.659c-0.75-0.033-1.338-0.699-1.647-1.334c-0.479-0.984-0.526-2.148-0.534-3.222
			c-0.018-2.382,0.507-4.751,1.5-6.914c0.338-0.736,0.109-1.635-0.635-2.025c-0.691-0.362-1.685-0.104-2.025,0.635
			c-1.343,2.925-2.019,6.164-1.804,9.386c0.1,1.502,0.415,3.099,1.333,4.33c0.961,1.289,2.3,2.07,3.916,2.141
			c0.81,0.035,1.473-0.786,1.447-1.551C236.226,481.243,235.517,480.694,234.705,480.659z"/>
		<path style="fill:#191F28;" d="M308.584,309.175c-0.649-0.618-1.499-0.441-2.12,0.074c-10.159,8.413-14.145,21.703-15.789,34.316
			c-0.952,7.308-1.324,14.678-2.097,22.005c-0.757,7.172-1.746,14.319-2.965,21.427c-2.492,14.532-5.943,28.9-10.33,42.976
			c-2.102,6.745-4.432,13.485-5.427,20.507c-0.493,3.477-0.681,7.017-0.298,10.514c0.394,3.595,1.776,6.999,2.129,10.582
			c0.318,3.227-0.681,6.748-4.227,7.498c-1.886,0.399-3.906,0.386-5.825,0.48c-2.04,0.1-4.081,0.157-6.123,0.172
			c-2.124,0.016-4.247-0.015-6.37-0.091c-1.711-0.062-3.694,0.044-5.329-0.571c-3.583-1.349-1.022-5.777,0.333-7.858
			c1.051-1.615-1.612-2.999-2.66-1.39c-1.538,2.362-3.111,5.421-2.305,8.32c0.872,3.136,3.983,4.117,6.887,4.341
			c3.819,0.294,7.682,0.298,11.509,0.219c1.96-0.04,3.919-0.12,5.876-0.238c1.751-0.106,3.578-0.148,5.28-0.609
			c3.008-0.814,4.967-3.254,5.694-6.209c0.833-3.389-0.144-6.798-0.977-10.08c-1.888-7.435-0.959-14.901,0.945-22.236
			c1.915-7.377,4.487-14.574,6.544-21.913c2.076-7.407,3.896-14.886,5.456-22.419c3.088-14.912,4.95-29.95,6.224-45.115
			c1.277-15.195,3.524-32.22,16.039-42.584C309.288,310.774,309.117,309.682,308.584,309.175z"/>
		<path style="fill:#191F28;" d="M216.697,380.008c-10.456-3.177-18.781-11.015-26.054-18.847
			c-7.293-7.855-13.682-16.601-18.53-26.177c-2.76-5.452-4.954-11.175-6.525-17.081c-0.498-1.871-3.37-1.002-2.874,0.862
			c2.89,10.866,7.931,21.078,14.329,30.298c6.296,9.074,13.85,17.707,22.444,24.676c4.952,4.015,10.422,7.334,16.55,9.196
			C217.884,383.497,218.539,380.568,216.697,380.008z"/>
		<path style="fill:#191F28;" d="M243.573,410.867c-5.867-8.506-12.573-16.419-20.012-23.591c-1.39-1.341-3.437,0.853-2.046,2.194
			c7.252,6.992,13.783,14.677,19.502,22.969C242.111,414.024,244.67,412.458,243.573,410.867z"/>
		<path style="fill:#191F28;" d="M165.122,241.631c-2.589,14.558-12.162,27.083-12.747,42.113c-0.075,1.932,2.923,1.816,2.998-0.105
			c0.572-14.682,10.14-27.089,12.676-41.349C168.386,240.396,165.462,239.723,165.122,241.631z"/>
		<path style="fill:#191F28;" d="M163.624,271.437c-3.503,7.708-5.299,16.058-5.256,24.526c0.01,1.935,3.008,1.826,2.998-0.105
			c-0.041-7.939,1.631-15.803,4.917-23.031C167.078,271.079,164.426,269.673,163.624,271.437z"/>
		<path style="fill:#191F28;" d="M165.585,287.239c-0.878,4.326-1.166,8.768-0.83,13.17c0.146,1.923,3.145,1.825,2.998-0.105
			c-0.317-4.16-0.07-8.317,0.759-12.406C168.895,286.009,165.97,285.34,165.585,287.239z"/>
		<path style="fill:#191F28;" d="M217.216,446.554c-8.517-11.002-13.891-24.254-15.31-38.104c-0.026-0.257-0.106-0.475-0.22-0.661
			c0.938-5.112,1.655-10.264,1.956-15.489c0.401-6.953,0.381-12.966-1.421-19.725c-0.499-1.871-3.371-1.001-2.874,0.862
			c3.094,11.606,1.436,23.207-0.787,34.838c-2.234,11.684-5.628,23.102-8.246,34.698c-1.464,6.486-2.675,13.032-3.315,19.655
			c-0.183,1.896,2.741,2.582,2.927,0.659c0.303-3.138,0.741-6.25,1.269-9.347c0.218-0.076,0.431-0.21,0.622-0.434
			c1.199-1.412,2.864-2.059,4.591-2.601c2.09-0.657,4.23-1.173,6.388-1.55c4.349-0.761,8.801-0.891,13.195-0.516
			C217.069,448.931,217.87,447.399,217.216,446.554z M201.471,446.564c-3.003,0.557-6.656,1.218-9.452,2.906
			c2.231-11.273,5.479-22.359,8.005-33.572c2.137,10.688,6.494,20.883,12.823,29.778
			C209.036,445.569,205.232,445.866,201.471,446.564z"/>
		<path style="fill:#191F28;" d="M196.225,473.81c-1.626-0.853-2.049-2.898-1.987-4.765c0.036-1.071,0.19-2.157,0.394-3.21
			c0.178-0.921,0.411-1.654,1.049-2.238c0.598-0.548,0.485-1.598-0.074-2.12c-0.632-0.59-1.52-0.475-2.12,0.074
			c-0.976,0.893-1.478,2.17-1.745,3.44c-0.301,1.431-0.486,2.94-0.508,4.402c-0.042,2.783,1.013,5.721,3.601,7.077
			C196.543,477.365,197.94,474.71,196.225,473.81z"/>
		<path style="fill:#191F28;" d="M221.215,473.777c-5.035,0.115-10.091,0.375-15.127,0.335c-1.875-0.015-3.697-0.426-4.315-2.414
			c-0.69-2.219,0.341-4.523,1.205-6.538c0.755-1.761-1.896-3.17-2.66-1.39c-1.096,2.557-2.141,5.218-1.598,8.042
			c0.484,2.516,2.25,4.424,4.747,5.03c2.633,0.639,5.628,0.213,8.306,0.151c3.182-0.073,6.365-0.146,9.547-0.218
			C223.254,476.731,223.148,473.733,221.215,473.777z"/>
		<path style="fill:#191F28;" d="M287.658,476.219h-15.707c-1.935,0-1.825,2.998,0.105,2.998h15.707
			C289.698,479.217,289.588,476.219,287.658,476.219z"/>
		<path style="fill:#191F28;" d="M389.522,304.701c-1.746-6.4-5.81-13.38-12.282-15.92c-6.988-2.742-13.238,2.418-15.085,9.057
			c-2.375,8.539,2.224,18.503-2.949,26.329c-1.062,1.607,1.602,2.99,2.66,1.39c4.11-6.218,2.533-13.844,2.505-20.816
			c-0.013-3.367,0.404-6.782,2.261-9.669c1.583-2.46,4.233-4.392,7.277-4.087c3.267,0.327,6.099,2.747,8.102,5.19
			c1.908,2.327,3.277,5.073,4.202,7.925c2.01,6.201,2.07,12.952,1.008,19.34c-1.306,7.853-4.412,15.4-9.101,21.842
			c-1.122,1.541,1.059,3.606,2.194,2.046C388.964,335.443,393.471,319.175,389.522,304.701z"/>
		<path style="fill:#191F28;" d="M407.181,305.375c-9.189-14.979-24.556-25.607-41.873-28.727
			c-5.233-0.943-10.577-1.219-15.879-0.82c-1.923,0.145-1.826,3.144,0.105,2.998c17.298-1.305,34.494,5.045,46.7,17.385
			c3.209,3.244,6.006,6.847,8.391,10.735C405.636,308.595,408.191,307.021,407.181,305.375z"/>
		<path style="fill:#191F28;" d="M414.204,299.907c-6.752-13.149-18.401-23.643-32.193-28.965c-1.779-0.686-3.194,1.964-1.39,2.66
			c13.358,5.154,24.486,15.139,31.027,27.877C412.531,303.199,415.081,301.614,414.204,299.907z"/>
		<path style="fill:#191F28;" d="M219.691,163.284c-6.804-3.707-14.925-4.568-22.36-2.398c-1.858,0.542-0.992,3.415,0.862,2.874
			c6.711-1.958,13.972-1.159,20.108,2.184C219.995,166.866,221.39,164.209,219.691,163.284z"/>
		<path style="fill:#191F28;" d="M218.076,156.561c-2.569-2.259-5.743-3.806-9.121-4.375c-0.773-0.13-1.644,0.306-1.793,1.134
			c-0.137,0.764,0.306,1.654,1.134,1.793c0.743,0.125,1.476,0.294,2.196,0.516c0.18,0.055,0.358,0.115,0.537,0.175
			c0.037,0.012,0.067,0.023,0.088,0.03c0.07,0.026,0.14,0.053,0.209,0.08c0.372,0.146,0.739,0.305,1.101,0.477
			c0.68,0.323,1.338,0.692,1.969,1.102c0.079,0.051,0.157,0.103,0.235,0.156c0.011,0.008,0.074,0.051,0.12,0.081
			c0.044,0.032,0.116,0.083,0.129,0.093c0.076,0.056,0.151,0.112,0.226,0.169c0.318,0.243,0.625,0.498,0.926,0.762
			c0.589,0.518,1.583,0.556,2.12-0.074C218.665,158.076,218.707,157.116,218.076,156.561z"/>
		<path style="fill:#191F28;" d="M208.503,126.268c-5.095-2.757-10.972,2.367-10.307,7.713c0.086,0.693,0.284,1.335,0.567,1.914
			c0.035,0.098,0.054,0.2,0.094,0.297c1.114,2.696,4.252,3.653,6.92,2.845c2.582-0.783,4.619-2.858,5.397-5.43
			C211.991,130.902,211.094,127.671,208.503,126.268z"/>
		<path style="fill:#191F28;" d="M254.342,145.182c-5.698-1.043-9.699,5.65-7.41,10.526c0.297,0.632,0.684,1.181,1.132,1.645
			c0.063,0.083,0.113,0.173,0.181,0.253c1.894,2.218,5.175,2.156,7.461,0.561c2.213-1.544,3.507-4.148,3.449-6.835
			C259.094,148.507,257.24,145.712,254.342,145.182z"/>
		<path style="fill:#191F28;" d="M218.875,209.496c-0.067-0.191-0.178-0.354-0.335-0.489c-0.146-0.147-0.316-0.246-0.511-0.3
			c-0.177-0.083-0.365-0.117-0.565-0.102c-0.126,0.021-0.252,0.041-0.379,0.062c-0.259,0.079-0.481,0.217-0.666,0.414
			c-0.078,0.109-0.155,0.219-0.233,0.328c-0.121,0.234-0.178,0.484-0.169,0.747v0.185c0,0.2,0.047,0.385,0.141,0.556
			c0.067,0.191,0.178,0.354,0.335,0.489c0.146,0.147,0.316,0.246,0.511,0.3c0.177,0.083,0.365,0.117,0.565,0.102
			c0.126-0.021,0.252-0.041,0.379-0.062c0.259-0.079,0.481-0.217,0.666-0.414c0.078-0.109,0.155-0.219,0.233-0.328
			c0.121-0.234,0.178-0.484,0.169-0.747v-0.185C219.017,209.852,218.97,209.667,218.875,209.496z"/>
		<path style="fill:#191F28;" d="M228.214,203.972c-1.935,0-1.825,2.998,0.105,2.998
			C230.254,206.97,230.144,203.972,228.214,203.972z"/>
		<path style="fill:#191F28;" d="M227.102,212.868c-1.935,0-1.825,2.998,0.105,2.998
			C229.142,215.866,229.032,212.868,227.102,212.868z"/>
		<path style="fill:#191F28;" d="M163.905,174.319c-1.935,0-1.825,2.998,0.105,2.998
			C165.945,177.318,165.835,174.319,163.905,174.319z"/>
		<path style="fill:#191F28;" d="M173.542,186.922c-1.935,0-1.825,2.998,0.105,2.998
			C175.582,189.92,175.472,186.922,173.542,186.922z"/>
		<path style="fill:#191F28;" d="M161.132,187.619c-0.079-0.259-0.217-0.481-0.414-0.666l-0.328-0.233
			c-0.234-0.121-0.484-0.178-0.747-0.169h-0.185c-0.2,0-0.385,0.047-0.556,0.142c-0.191,0.067-0.353,0.178-0.489,0.335
			c-0.147,0.146-0.246,0.316-0.3,0.511c-0.083,0.177-0.117,0.365-0.102,0.565c0.021,0.126,0.041,0.252,0.062,0.379
			c0.079,0.259,0.217,0.481,0.414,0.666c0.109,0.078,0.219,0.155,0.328,0.233c0.234,0.121,0.484,0.178,0.747,0.169h0.185
			c0.2,0,0.385-0.047,0.556-0.142c0.191-0.067,0.353-0.178,0.489-0.335c0.147-0.146,0.246-0.316,0.3-0.511
			c0.083-0.177,0.117-0.365,0.102-0.565C161.173,187.872,161.153,187.745,161.132,187.619z"/>
		<path style="fill:#191F28;" d="M202.008,226.459c-5.125,5.537-13.393,4.604-19.681,1.814c-6.017-2.67-10.31-7.875-10.699-14.606
			c-0.112-1.927-3.11-1.827-2.998,0.105c0.213,3.686,1.441,7.293,3.599,10.299c2.329,3.244,5.484,5.487,9.132,7.046
			c7.447,3.184,16.875,3.833,22.84-2.612C205.513,227.089,203.322,225.04,202.008,226.459z"/>
	</g>
	<g>
		<path style="fill:#191F28;" d="M142.339,431.544c0.929-1.691-1.728-3.085-2.66-1.39c-2.685,4.886-3.802,10.414-3.845,15.957
			c-0.022,2.778,0.232,5.549,0.672,8.29c0.356,2.22,0.74,4.884,3.037,5.929c1.748,0.795,3.154-1.857,1.39-2.66
			c-1.534-0.698-1.523-3.853-1.703-5.272c-0.305-2.401-0.45-4.824-0.381-7.244C138.982,440.405,140.042,435.723,142.339,431.544z"/>
		<path style="fill:#191F28;" d="M134.2,458.654c-5.919-7.438-9.438-16.529-9.958-26.028c-0.106-1.928-3.104-1.828-2.998,0.105
			c0.547,9.977,4.173,19.671,10.4,27.495C132.833,461.72,135.4,460.161,134.2,458.654z"/>
		<path style="fill:#191F28;" d="M128.755,466.629c-4.804-1.448-9.664-2.655-14.702-2.815c-5.078-0.162-10.141,0.624-15.09,1.698
			c-9.444,2.051-18.694,5.306-28.439,5.596c-5.202,0.155-10.405-0.6-15.115-2.894c-1.731-0.843-3.132,1.811-1.39,2.66
			c18.585,9.049,38-3.245,56.855-4.041c5.938-0.251,11.572,1.02,17.222,2.723C129.944,470.113,130.599,467.184,128.755,466.629z"/>
		<path style="fill:#191F28;" d="M128.435,461.148c-5.103-2.825-9.629-6.685-13.177-11.32c-0.492-0.643-1.325-0.948-2.064-0.492
			c-0.635,0.391-0.987,1.417-0.492,2.064c3.887,5.078,8.744,9.309,14.343,12.408C128.734,464.742,130.128,462.084,128.435,461.148z"
			/>
		<path style="fill:#191F28;" d="M408.557,442.544c-5.501,3.368-10.516,7.547-14.78,12.389c-4.289,4.871-8.414,10.557-9.763,17.02
			c-0.394,1.888,2.531,2.556,2.927,0.659c1.268-6.075,5.248-11.398,9.306-15.945c4.038-4.524,8.712-8.402,13.881-11.567
			C411.778,444.091,410.204,441.536,408.557,442.544z"/>
		<path style="fill:#191F28;" d="M405.19,459.037c-3.297,2.308-6.514,4.727-9.64,7.262c-2.85,2.312-5.779,4.66-7.523,7.966
			c-0.9,1.706,1.756,3.102,2.66,1.39c1.573-2.982,4.345-5.118,6.923-7.194c2.972-2.392,6.027-4.68,9.153-6.868
			C408.339,460.489,406.773,457.928,405.19,459.037z"/>
		<path style="fill:#191F28;" d="M477.248,477.851c-10.644,4.201-22.256,3.977-33.406,2.322
			c-11.235-1.668-22.273-4.895-33.623-5.746c-5.997-0.449-12.116-0.018-17.76,2.185c-1.79,0.699-0.938,3.576,0.862,2.874
			c10.444-4.076,21.89-1.72,32.501,0.384c11.278,2.236,22.671,4.782,34.241,4.389c6.154-0.209,12.306-1.268,18.047-3.534
			C479.896,480.02,479.044,477.142,477.248,477.851z"/>
	</g>
</g>
</svg>
